<svg width="35" height="35" fill="none" xmlns="http://www.w3.org/2000/svg"><path d="M14.439 13.902c-.755 1.377-1.258 2.857-1.56 4.392-1.178-2.218-2.998-4.34-4.734-5.23 1.285 2.456 3.059 5.282 4.45 7.171-.028.294-.051.59-.067.887l-.002.01-.002.036-.001.013v.008l-.002.052v.01l-.003.041-.003.047-.004.075c-.003.085-.01.165-.011.242l-.003.119v.003l-.005.114v.047l-.002.017-.002.032v.043l-.001.037v.212l-.003.039v.081l-.002.04v.283l.002.016c.003.714.039 1.437.094 2.144-2.168-2.12-6.088-3.942-8.746-3.83 2.897 1.882 6.749 3.886 8.821 4.654.05.526.116 1.051.19 1.57C4.794 30.568 3.823 23.989 0 19.22c2.516-.908 4.64-1.298 6.426-1.252-.558-2.417-.23-5.427-.716-8.383 4.5.752 7.264 2.272 8.729 4.316zM35 6.84c-3.856 10.788-1.115 23.137-20.074 20.343C13.175 15.156 17.536 6.602 35 6.839zm-5.298 5.232c-5.218 1.57-11.798 8.5-13.217 13.705 2.5-1.562 8.882-8.14 13.217-13.705z" fill="#68B738"/></svg>