<svg width="35" height="35" fill="#00B2FF" xmlns="http://www.w3.org/2000/svg"><path d="M17.5 13.758a.696.696 0 00-.684.708c0 .391.307.708.684.708a.696.696 0 00.684-.708.696.696 0 00-.684-.708z"/><path d="M32.95 18.007h-2.66c-1.403-4.148-3.437-11.42-7.123-13.477-1.843-1.028-3.586-.31-4.24 1.148-.28.62-.836.947-1.427.947-.599 0-1.15-.334-1.426-.946-.632-1.409-2.333-2.193-4.112-1.299-3.744 1.884-5.838 9.448-7.251 13.627H2.05c-1.132 0-2.05.95-2.05 2.123 0 1.17.92 2.124 2.05 2.124h30.9c1.132 0 2.05-.95 2.05-2.124 0-1.172-.92-2.124-2.05-2.124zM7.111 15.174h7.654a.696.696 0 00.683-.708.696.696 0 00-.683-.708H7.59c2.06-5.896 3.986-7.609 4.97-8.104 1.073-.54 1.956-.088 2.274.622.502 1.116 1.54 1.765 2.666 1.765 1.13 0 2.166-.652 2.666-1.765.327-.73 1.215-1.134 2.352-.5.989.552 2.908 2.322 4.892 7.982h-7.176a.696.696 0 00-.683.708c0 .391.306.708.683.708h7.654c.346 1.033.705 2.098.953 2.833H6.159c.248-.733.606-1.796.953-2.833zm25.837 5.665H2.051a.697.697 0 01-.684-.708c0-.391.306-.708.684-.708h30.898c.377 0 .684.317.684.708 0 .39-.306.708-.684.708zm-16.815 4.248H5.195a.696.696 0 00-.683.708v2.832c0 3.514 2.76 6.373 6.152 6.373 2.57 0 4.846-1.638 5.75-4.105a2.541 2.541 0 012.171 0c.905 2.467 3.18 4.105 5.75 4.105 3.393 0 6.153-2.859 6.153-6.373v-2.832a.696.696 0 00-.683-.708H18.867a.696.696 0 00-.683.708v.708h-1.368v-.708a.696.696 0 00-.683-.708zm-5.469 8.497c-2.638 0-4.785-2.224-4.785-4.957v-2.124h9.57v2.125c0 2.74-2.135 4.956-4.785 4.956zm8.887-7.08h9.57v2.123c0 2.733-2.147 4.957-4.785 4.957-2.657 0-4.785-2.223-4.785-4.957v-2.124zm-1.367 1.415v.709c0 .226.012.451.035.675a3.865 3.865 0 00-1.438 0 6.62 6.62 0 00.035-.675v-.709h1.368z"/><path d="M10.664 30.752c-1.13 0-2.05-.953-2.05-2.125a.696.696 0 00-.684-.708.696.696 0 00-.684.708c0 1.952 1.533 3.54 3.418 3.54a.696.696 0 00.684-.707.696.696 0 00-.684-.708zm13.672 1.416c1.885 0 3.418-1.589 3.418-3.54a.696.696 0 00-.684-.709.696.696 0 00-.683.708c0 1.172-.92 2.125-2.051 2.125a.696.696 0 00-.684.708c0 .39.306.708.684.708z"/></svg>