<svg width="20" height="20" fill="FF8C00" xmlns="http://www.w3.org/2000/svg"><path fill-rule="evenodd" clip-rule="evenodd" d="M1 1.563A.563.563 0 011.563 1H3.25a.562.562 0 01.546.426L4.25 3.25h13.062a.562.562 0 01.545.699l-1.687 6.75a.562.562 0 01-.546.426H5.5a.562.562 0 01-.546-.426L2.811 2.125H1.563A.563.563 0 011 1.562zm3.532 2.812L5.94 10h9.247l1.407-5.625H4.533zm2.093 9a1.125 1.125 0 100 2.25 1.125 1.125 0 000-2.25zM4.375 14.5a2.25 2.25 0 114.5 0 2.25 2.25 0 01-4.5 0zM14.5 13.375a1.125 1.125 0 100 2.25 1.125 1.125 0 000-2.25zM12.25 14.5a2.25 2.25 0 114.5 0 2.25 2.25 0 01-4.5 0z" fill="#FF8C00"/></svg>