<svg width="20" height="20" fill="none" xmlns="http://www.w3.org/2000/svg"><g clip-path="url(#clip0_47528_343)" fill="#FF8C00"><path d="M9.714 10a4.5 4.5 0 100-9 4.5 4.5 0 000 9zm0-7.714a3.215 3.215 0 110 6.429 3.215 3.215 0 010-6.43zm.643 9H9.071A7.072 7.072 0 002 18.357a.643.643 0 00.643.643h14.143a.643.643 0 00.643-.643 7.072 7.072 0 00-7.072-7.071zm-7.033 6.428a5.785 5.785 0 015.747-5.143h1.286a5.786 5.786 0 015.747 5.143H3.324z"/></g><defs><clipPath id="clip0_47528_343"><path fill="#fff" transform="translate(1 1)" d="M0 0h18v18H0z"/></clipPath></defs></svg>