<svg width="150" height="56" fill="none" xmlns="http://www.w3.org/2000/svg"><path d="M134.826 13.42a9.868 9.868 0 00-2.968.626c.831-1.408 1.391-3.14 1.295-4.406-.927 1.548-1.894 3.493-2.471 4.907a16.7 16.7 0 00-.515.264l-.006.003-.021.011-.008.004-.004.002-.03.017-.005.003-.024.012-.027.015-.043.023c-.048.027-.095.05-.138.076l-.067.039h-.002l-.065.037-.007.004-.019.012-.01.004-.018.01-.019.012-.005.003-.021.012-.006.003-.003.003-.032.019-.006.003-.042.026-.004.002-.015.01-.009.005-.023.012-.002.001-.019.012-.013.007-.011.008-.023.012-.037.023-.121.074-.009.006c-.395.245-.784.51-1.158.781.44-1.924.121-4.72-.844-6.159-.061 2.249.134 5.069.412 6.48-.276.207-.545.422-.808.64-4.562-3.354-1.237-6.128.112-9.87 1.359 1.089 2.297 2.136 2.879 3.143 1.152-1.13 2.935-1.97 4.412-3.245 1.111 2.755 1.206 4.806.568 6.314zm10.907 9.02c-7.301 1.523-13.229 7.24-18.117-4.238 6.084-5.058 12.316-5.542 18.117 4.239zm-4.705-1.164c-2.645-2.365-8.729-3.666-12.102-2.686 1.717.858 7.538 2.168 12.102 2.686zM23.664 50.16c-1.227 0-2.053-.213-2.48-.64a1.159 1.159 0 01-.336-.608c-.043-.235-.064-.592-.064-1.072h.32c.096.533.325.95.688 1.248.373.288.89.432 1.552.432.587 0 1.024-.101 1.312-.304.299-.203.448-.475.448-.816 0-.31-.117-.576-.352-.8-.224-.224-.587-.437-1.088-.64l-.96-.4c-.64-.256-1.12-.555-1.44-.896-.32-.341-.48-.763-.48-1.264 0-.65.245-1.157.736-1.52.49-.373 1.125-.56 1.904-.56 1.173 0 1.973.213 2.4.64.181.181.293.384.336.608.043.224.064.581.064 1.072h-.32c-.085-.533-.31-.944-.672-1.232-.363-.299-.859-.448-1.488-.448-.501 0-.896.107-1.184.32a.945.945 0 00-.416.8c0 .555.427 1.008 1.28 1.36l.96.4c.725.299 1.253.619 1.584.96.33.33.496.757.496 1.28 0 .65-.261 1.163-.784 1.536-.523.363-1.195.544-2.016.544zm4.629-8.8c0-.544-.075-.944-.224-1.2-.15-.267-.448-.4-.896-.4h-.32v-.32h1.44c.394 0 .688.053.88.16.202.096.346.277.432.544.085.267.128.672.128 1.216v1.76a2.69 2.69 0 01.864-.56c.362-.16.768-.24 1.216-.24.8 0 1.45.213 1.952.64.512.427.768 1.173.768 2.24V50h-1.44v-4.8c0-.747-.171-1.29-.512-1.632a1.64 1.64 0 00-1.248-.528c-.566 0-1.099.283-1.6.848V50h-1.44v-8.64zm11.556 8.8c-.725 0-1.354-.17-1.888-.512a3.367 3.367 0 01-1.216-1.424 4.653 4.653 0 01-.416-1.984c0-.725.139-1.387.416-1.984a3.262 3.262 0 011.216-1.408c.534-.352 1.163-.528 1.888-.528.726 0 1.355.176 1.888.528.534.341.939.81 1.216 1.408.278.597.416 1.259.416 1.984 0 .725-.138 1.387-.416 1.984a3.369 3.369 0 01-1.216 1.424c-.533.341-1.162.512-1.888.512zm0-.64c.395 0 .742-.144 1.04-.432.31-.288.544-.683.704-1.184a5.14 5.14 0 00.256-1.664 5.14 5.14 0 00-.256-1.664c-.16-.501-.394-.896-.704-1.184a1.453 1.453 0 00-1.04-.432 1.51 1.51 0 00-1.056.432c-.298.288-.533.683-.704 1.184a5.453 5.453 0 00-.24 1.664c0 .608.08 1.163.24 1.664.171.501.406.896.704 1.184.31.288.662.432 1.056.432zm5.637-5.12c0-.544-.075-.944-.224-1.2-.15-.267-.448-.4-.896-.4h-.32v-.32h1.44c.405 0 .71.059.912.176a.89.89 0 01.448.544h.08c.192-.245.464-.453.816-.624.352-.17.8-.256 1.344-.256.917 0 1.626.373 2.128 1.12.501.736.752 1.67.752 2.8 0 1.141-.262 2.08-.784 2.816-.512.736-1.264 1.104-2.256 1.104-.406 0-.763-.043-1.072-.128a5.494 5.494 0 01-.928-.352v3.36h-1.44V44.4zm2.96 5.12c.682 0 1.184-.299 1.504-.896.33-.597.496-1.392.496-2.384 0-.981-.155-1.77-.464-2.368-.31-.608-.768-.912-1.376-.912-.715 0-1.275.32-1.68.96v5.12c.32.15.597.267.832.352.234.085.464.128.688.128z" fill="#68B738"/><path d="M17.24 36.8c-2.48 0-4.667-.613-6.56-1.84-1.867-1.227-3.307-2.907-4.32-5.04-1.013-2.133-1.52-4.507-1.52-7.12 0-2.613.507-4.987 1.52-7.12s2.453-3.813 4.32-5.04c1.893-1.227 4.08-1.84 6.56-1.84 2.48 0 4.653.613 6.52 1.84 1.893 1.227 3.347 2.907 4.36 5.04 1.013 2.133 1.52 4.507 1.52 7.12 0 2.613-.507 4.987-1.52 7.12s-2.467 3.813-4.36 5.04c-1.867 1.227-4.04 1.84-6.52 1.84zm0-1.6c1.733 0 3.227-.507 4.48-1.52 1.28-1.013 2.253-2.44 2.92-4.28.667-1.867 1-4.067 1-6.6 0-2.533-.333-4.72-1-6.56-.667-1.867-1.64-3.307-2.92-4.32-1.253-1.013-2.747-1.52-4.48-1.52-1.733 0-3.24.507-4.52 1.52-1.253 1.013-2.213 2.453-2.88 4.32-.667 1.84-1 4.027-1 6.56 0 2.533.333 4.733 1 6.6.667 1.84 1.627 3.267 2.88 4.28 1.28 1.013 2.787 1.52 4.52 1.52zM34.677 22c0-1.36-.187-2.36-.56-3-.374-.667-1.12-1-2.24-1h-.4v-.8h3.2c1.013 0 1.773.147 2.28.44.533.267.906.72 1.12 1.36h.2c.48-.613 1.12-1.133 1.92-1.56.826-.427 1.786-.64 2.88-.64 1.066 0 1.866.2 2.4.6.453.347.92.947 1.4 1.8l-1.6 1.2c-.294-.4-.72-.693-1.28-.88-.56-.213-1.2-.32-1.92-.32-.8 0-1.534.187-2.2.56-.667.347-1.2.827-1.6 1.44V36h-3.6V22zm20.058 14.4c-.853 0-1.72-.173-2.6-.52-.88-.373-1.64-.973-2.28-1.8-.613-.827-.92-1.92-.92-3.28 0-2.027.933-3.467 2.8-4.32 1.893-.853 4.36-1.28 7.4-1.28h1.2c0-2.613-.36-4.4-1.08-5.36-.72-.96-1.76-1.44-3.12-1.44-1.2 0-2.16.253-2.88.76-.72.507-1.227 1.387-1.52 2.64h-1.8c0-.907.053-1.613.16-2.12.107-.533.387-1.027.84-1.48.48-.48 1.267-.827 2.36-1.04 1.12-.24 2.333-.36 3.64-.36 2.16 0 3.867.587 5.12 1.76 1.253 1.147 1.88 3.36 1.88 6.64V36h-2l-1.4-1.8h-.2c-.48.613-1.187 1.133-2.12 1.56-.933.427-2.093.64-3.48.64zm1.8-1.8c.88 0 1.613-.213 2.2-.64.587-.427 1.12-1.013 1.6-1.76v-5.4h-1.2c-1.973 0-3.533.373-4.68 1.12-1.147.72-1.72 1.68-1.72 2.88 0 1.227.36 2.173 1.08 2.84.747.64 1.653.96 2.72.96zM70.113 22c0-1.36-.187-2.36-.56-3-.373-.667-1.12-1-2.24-1h-.8v-.8h3.6c.987 0 1.733.133 2.24.4.533.267.92.667 1.16 1.2h.2c.56-.56 1.28-1.027 2.16-1.4.906-.4 1.92-.6 3.04-.6 2 0 3.627.533 4.88 1.6 1.28 1.067 1.92 2.933 1.92 5.6v12h-3.6V24c0-1.867-.427-3.227-1.28-4.08-.827-.88-1.867-1.32-3.12-1.32-1.413 0-2.747.707-4 2.12V36h-3.6V22zM98.23 44c-2.694 0-4.84-.493-6.44-1.48-1.574-.987-2.36-2.56-2.36-4.72 0-1.227.413-2.293 1.24-3.2.826-.907 1.88-1.573 3.16-2-1.067-.587-1.6-1.387-1.6-2.4 0-.533.12-.947.36-1.24.24-.293.586-.613 1.04-.96-.854-.427-1.574-1.093-2.16-2-.56-.907-.84-1.973-.84-3.2 0-4 2.533-6 7.6-6h7.4v1l-2.6.4v.2a5.212 5.212 0 012 1.8c.533.747.8 1.613.8 2.6 0 4-2.534 6-7.6 6-2.8 0-4.2.467-4.2 1.4 0 .933 1.4 1.4 4.2 1.4 2.586 0 4.693.52 6.32 1.56 1.653 1.013 2.48 2.56 2.48 4.64 0 2.16-.8 3.733-2.4 4.72-1.574.987-3.707 1.48-6.4 1.48zm0-16.6c1.2 0 2.16-.36 2.88-1.08.746-.747 1.12-1.92 1.12-3.52 0-1.52-.374-2.667-1.12-3.44-.72-.773-1.68-1.16-2.88-1.16s-2.174.373-2.92 1.12c-.72.72-1.08 1.88-1.08 3.48s.36 2.773 1.08 3.52c.746.72 1.72 1.08 2.92 1.08zm0 15c1.6 0 2.866-.387 3.8-1.16.933-.747 1.4-1.893 1.4-3.44 0-2.667-1.6-4.2-4.8-4.6l-2.2-.2c-1.094.427-1.934 1.027-2.52 1.8-.587.773-.88 1.773-.88 3 0 1.547.466 2.693 1.4 3.44.933.773 2.2 1.16 3.8 1.16zm20.047-6c-1.813 0-3.347-.427-4.6-1.28-1.253-.88-2.2-2.053-2.84-3.52-.64-1.493-.96-3.16-.96-5 0-1.813.32-3.467.96-4.96.64-1.493 1.56-2.667 2.76-3.52 1.227-.88 2.653-1.32 4.28-1.32 2.693 0 4.693.76 6 2.28 1.333 1.493 2 3.667 2 6.52l-.08 1.6h-12.12c0 2.24.48 4.067 1.44 5.48.96 1.413 2.28 2.12 3.96 2.12 1.253 0 2.307-.267 3.16-.8.88-.533 1.693-1.333 2.44-2.4l.8.6c-.88 1.467-1.907 2.533-3.08 3.2-1.173.667-2.547 1-4.12 1zm3.8-10.8c0-2.347-.347-4.133-1.04-5.36-.693-1.227-1.747-1.84-3.16-1.84-.8 0-1.52.32-2.16.96-.64.613-1.147 1.467-1.52 2.56-.347 1.093-.52 2.32-.52 3.68h8.4z" fill="#FF8C00"/></svg>